<?xml version="1.0" standalone="no"?>
<!DOCTYPE svg PUBLIC "-//W3C//DTD SVG 20010904//EN"
 "http://www.w3.org/TR/2001/REC-SVG-20010904/DTD/svg10.dtd">
<svg version="1.0" xmlns="http://www.w3.org/2000/svg"
 width="250.000000pt" height="250.000000pt" viewBox="0 0 250.000000 250.000000"
 preserveAspectRatio="xMidYMid meet">

<g transform="translate(0.000000,250.000000) scale(0.100000,-0.100000)"
fill="#000000" stroke="none">
<path d="M550 1367 c-53 -17 -130 -96 -130 -134 0 -41 27 -63 76 -61 l39 1
-35 4 c-45 6 -60 19 -60 53 0 75 160 169 220 130 13 -8 13 -13 1 -32 -13 -22
-13 -22 5 -5 43 41 -34 71 -116 44z"/>
<path d="M1350 1365 c20 -24 4 -64 -33 -80 -18 -8 -25 -14 -17 -15 9 0 26 7
38 16 43 30 51 75 15 88 -13 5 -14 4 -3 -9z"/>
<path d="M1185 1326 c-51 -53 -64 -99 -37 -136 14 -18 29 -25 58 -27 l39 -2
-35 9 c-81 20 -79 95 5 169 20 17 30 31 24 31 -7 0 -31 -20 -54 -44z"/>
<path d="M928 1315 c-13 -19 -30 -35 -38 -35 -12 0 -12 -2 -2 -9 10 -6 8 -20
-13 -64 -29 -61 -39 -72 -70 -80 -18 -4 -18 -5 2 -6 24 -1 57 37 92 107 13 25
28 42 39 42 13 0 14 2 3 9 -19 12 3 51 30 51 11 0 17 5 14 10 -12 20 -35 10
-57 -25z"/>
<path d="M1566 1273 c-25 -38 -46 -75 -46 -83 1 -11 4 -10 16 5 14 19 16 19
25 3 10 -19 54 -25 63 -9 3 4 -6 6 -19 3 -20 -3 -27 1 -35 24 -10 24 -8 31 7
44 23 20 57 80 45 80 -6 0 -31 -30 -56 -67z"/>
<path d="M2018 1323 c-34 -40 -78 -113 -78 -129 0 -17 1 -17 13 0 12 16 14 16
26 2 8 -9 23 -16 35 -16 20 0 20 1 -3 13 -34 17 -31 30 8 38 18 4 37 13 42 20
10 17 -8 39 -30 38 -13 -1 -13 -2 2 -6 31 -8 14 -35 -30 -46 -26 -6 -30 5 -8
23 8 7 15 17 15 23 0 6 7 19 17 29 9 10 14 20 11 23 -3 3 -12 -3 -20 -12z"/>
<path d="M1702 1294 c-40 -49 -56 -80 -49 -98 10 -24 25 -19 20 7 -3 16 7 36
36 69 23 25 41 49 41 52 0 16 -21 3 -48 -30z"/>
<path d="M590 1310 c0 -5 5 -10 11 -10 5 0 7 5 4 10 -3 6 -8 10 -11 10 -2 0
-4 -4 -4 -10z"/>
<path d="M736 1283 c-4 -4 -44 -6 -89 -5 -48 2 -88 -2 -97 -9 -11 -8 -2 -9 38
-5 41 4 52 2 52 -9 0 -8 -24 -28 -52 -45 -55 -31 -60 -42 -8 -15 34 18 36 15
15 -25 -26 -51 -9 -33 34 35 28 45 46 65 61 65 24 0 25 -4 4 -35 -17 -26 -13
-55 8 -55 9 0 9 3 -2 10 -13 8 -12 13 6 37 23 30 51 38 46 13 -3 -11 -1 -12 8
-4 14 14 10 46 -6 51 -5 2 -14 0 -18 -4z"/>
<path d="M804 1263 c-25 -27 -41 -69 -30 -80 3 -3 16 -1 28 5 l23 12 -22 -6
c-29 -7 -29 6 -2 40 24 31 43 34 36 6 -7 -25 -1 -26 13 -1 11 21 4 51 -12 51
-5 0 -20 -12 -34 -27z"/>
<path d="M1403 1284 c-20 -8 -55 -73 -49 -89 7 -20 19 -19 47 6 l24 20 -28
-17 c-36 -22 -46 -11 -21 23 25 34 41 39 47 16 4 -17 4 -17 12 0 14 32 -3 52
-32 41z"/>
<path d="M1469 1259 c-47 -51 -34 -104 17 -63 18 14 18 15 -4 4 -33 -16 -37
-7 -16 29 21 35 49 43 41 11 -7 -25 -1 -26 13 -1 11 21 4 51 -12 51 -6 0 -23
-14 -39 -31z"/>
<path d="M1628 1283 c21 -8 13 -23 -20 -38 -32 -14 -32 -14 -7 -15 15 0 32 7
39 15 14 17 7 45 -12 44 -10 0 -10 -2 0 -6z"/>
<path d="M1804 1268 c-38 -43 -44 -56 -38 -72 9 -23 27 -20 55 12 l24 27 -27
-24 c-33 -28 -46 -22 -30 14 13 29 44 45 50 27 6 -20 20 -3 15 18 -7 26 -25
25 -49 -2z"/>
<path d="M1893 1268 c-28 -31 -45 -66 -38 -78 11 -18 33 -10 60 21 42 50 21
104 -22 57z m37 -17 c0 -13 -40 -61 -51 -61 -14 0 -11 23 7 48 15 22 44 30 44
13z"/>
<path d="M1727 1273 c-4 -3 -7 -15 -7 -26 0 -11 -8 -30 -17 -41 -15 -18 -14
-18 8 2 14 12 28 20 30 17 3 -3 4 9 1 25 -5 32 -5 33 -15 23z"/>
<path d="M951 1241 c-32 -44 -25 -56 9 -18 31 36 36 47 21 47 -5 0 -19 -13
-30 -29z"/>
<path d="M1026 1251 c-10 -11 -15 -24 -12 -29 8 -14 -51 -92 -71 -92 -9 0 -14
-3 -10 -6 15 -15 51 13 78 62 17 30 35 57 40 60 11 7 12 24 1 24 -5 0 -17 -9
-26 -19z"/>
<path d="M729 1203 c-13 -16 -12 -17 4 -4 16 13 21 21 13 21 -2 0 -10 -8 -17
-17z"/>
<path d="M1309 1203 c-13 -16 -12 -17 4 -4 16 13 21 21 13 21 -2 0 -10 -8 -17
-17z"/>
</g>
</svg>
