<?xml version="1.0" encoding="UTF-8"?>
<svg version="1.1" xmlns="http://www.w3.org/2000/svg" width="240" height="126">
<path d="M0 0 C90.42 0 180.84 0 274 0 C274 41.58 274 83.16 274 126 C183.58 126 93.16 126 0 126 C0 84.42 0 42.84 0 0 Z " fill="#FDFDFD" transform="translate(0,0)"/>
<path d="M0 0 C16.17 0 32.34 0 49 0 C46.525 2.475 46.525 2.475 44 5 C42.0656797 7.7335987 42.0656797 7.7335987 41.15625 9.828125 C39.59479986 12.76111918 37.59723535 15.17612026 35.5 17.75 C34.7059375 18.73484375 33.911875 19.7196875 33.09375 20.734375 C32.4028125 21.48203125 31.711875 22.2296875 31 23 C30.34 23 29.68 23 29 23 C29 22.01 29 21.02 29 20 C27.02 24.455 27.02 24.455 25 29 C30.87629158 24.3433161 35.37524685 19.26525022 39.87817383 13.32763672 C40.74096484 12.1910431 41.61814023 11.06520008 42.51054382 9.95170593 C44.03410064 8.03060529 44.03410064 8.03060529 45.24316406 5.9261322 C47.8266759 2.13520392 49.75958514 0.26097524 54.33201599 -0.70103455 C58.57637135 -0.92716543 62.75057583 -0.90087818 66.99609375 -0.78125 C68.55547676 -0.76631184 70.11489755 -0.75493225 71.67433167 -0.74694824 C75.76062366 -0.71653579 79.84460716 -0.63807481 83.92999268 -0.54931641 C88.84135989 -0.45272208 93.75350316 -0.41629358 98.66555023 -0.36968994 C106.11196777 -0.29234881 113.55332999 -0.13900966 121 0 C121 16.17 121 32.34 121 49 C30.58 49 -59.84 49 -153 49 C-153 33.16 -153 17.32 -153 1 C-111.09 1 -69.18 1 -26 1 C-33 12 -33 12 -35.375 15.5 C-37.1300839 17.97044803 -37.1300839 17.97044803 -38 21 C-37.34 21 -36.68 21 -36 21 C-35.88068115 20.40977051 -35.7613623 19.81954102 -35.63842773 19.21142578 C-34.97952399 16.92907392 -34.17191004 15.52916349 -32.78515625 13.6171875 C-32.34623047 13.00746094 -31.90730469 12.39773437 -31.45507812 11.76953125 C-30.76575195 10.83173828 -30.76575195 10.83173828 -30.0625 9.875 C-29.60681641 9.24207031 -29.15113281 8.60914062 -28.68164062 7.95703125 C-26.89601076 5.4942738 -25.15430147 3.15430147 -23 1 C-20.84521484 0.77294922 -20.84521484 0.77294922 -18.2109375 0.8046875 C-16.79941406 0.81435547 -16.79941406 0.81435547 -15.359375 0.82421875 C-14.37453125 0.84097656 -13.3896875 0.85773438 -12.375 0.875 C-11.38242188 0.88402344 -10.38984375 0.89304687 -9.3671875 0.90234375 C-6.91121866 0.92595884 -4.45572832 0.95889201 -2 1 C-2.01571045 2.22517334 -2.01571045 2.22517334 -2.03173828 3.47509766 C-2.07342671 7.19170022 -2.09936727 10.90825346 -2.125 14.625 C-2.15013672 16.55279297 -2.15013672 16.55279297 -2.17578125 18.51953125 C-2.18544922 20.38544922 -2.18544922 20.38544922 -2.1953125 22.2890625 C-2.21102295 24.00150146 -2.21102295 24.00150146 -2.22705078 25.74853516 C-1.99052625 29.13566817 -1.2095701 31.84005042 0 35 C-0.21221191 34.19296631 -0.21221191 34.19296631 -0.42871094 33.36962891 C-1.83587868 27.62596093 -2.30710564 22.27591594 -2.25 16.375 C-2.25773438 15.56804687 -2.26546875 14.76109375 -2.2734375 13.9296875 C-2.27085937 13.135625 -2.26828125 12.3415625 -2.265625 11.5234375 C-2.26336914 10.82138184 -2.26111328 10.11932617 -2.25878906 9.39599609 C-1.91287923 6.19339319 -0.88493978 3.09728923 0 0 Z " fill="#FDFDFD" transform="translate(153,77)"/>
<path d="M0 0 C0 0.66 0 1.32 0 2 C-0.680625 2.37125 -1.36125 2.7425 -2.0625 3.125 C-5.35482397 5.22648338 -7.33818344 7.51507351 -9.8359375 10.48046875 C-13.03027521 14.19950814 -16.38760194 17.76363733 -19.73657227 21.34326172 C-22.63661879 24.46084728 -25.3840071 27.63479672 -28 31 C-27.030625 30.13375 -26.06125 29.2675 -25.0625 28.375 C-20.96449858 24.84803156 -16.54914461 21.90897683 -12 19 C-11.34 19.33 -10.68 19.66 -10 20 C-13.63 22.64 -17.26 25.28 -21 28 C-19.68 28.33 -18.36 28.66 -17 29 C-17.88042969 29.268125 -18.76085937 29.53625 -19.66796875 29.8125 C-27.39129825 32.18749297 -27.39129825 32.18749297 -33.0625 37.5625 C-36.88136307 45.28734849 -39.05657276 53.82280201 -41.19140625 62.13671875 C-42.32013401 66.13361464 -43.68663778 70.05991335 -45 74 C-28.17 74 -11.34 74 6 74 C6.99 72.02 6.99 72.02 8 70 C9.48020493 68.25634575 11.00501406 66.54998488 12.5625 64.875 C15.63719186 61.68492491 15.63719186 61.68492491 18 58 C16.9275 58.495 15.855 58.99 14.75 59.5 C11.74583192 60.88653911 10.54065105 61 7 61 C7 60.01 7 59.02 7 58 C6.33613281 58.27714844 5.67226562 58.55429687 4.98828125 58.83984375 C4.10527344 59.20207031 3.22226563 59.56429687 2.3125 59.9375 C1.00732422 60.47697266 1.00732422 60.47697266 -0.32421875 61.02734375 C-4.71830526 62.62461023 -8.65075523 63.1246566 -13.3125 63.0625 C-14.19550781 63.05347656 -15.07851562 63.04445312 -15.98828125 63.03515625 C-16.65214844 63.02355469 -17.31601563 63.01195312 -18 63 C-18.33 61.35 -18.66 59.7 -19 58 C-19.54269531 58.2165625 -20.08539063 58.433125 -20.64453125 58.65625 C-21.35996094 58.9346875 -22.07539063 59.213125 -22.8125 59.5 C-23.52019531 59.7784375 -24.22789062 60.056875 -24.95703125 60.34375 C-27 61 -27 61 -30 61 C-29.67339377 57.9516752 -28.99477806 56.99492311 -26.75 54.8125 C-24.02614544 53.01723222 -22.20548651 52.36634132 -19 52 C-20.24546405 55.73639216 -21.63404953 56.18756513 -25 58 C-23.58280758 57.37619308 -22.1662694 56.7508997 -20.75 56.125 C-19.96109375 55.77695312 -19.1721875 55.42890625 -18.359375 55.0703125 C-16.84694933 54.38421211 -15.35375628 53.65294319 -13.890625 52.8671875 C-12 52 -12 52 -9 52 C-9.33 53.32 -9.66 54.64 -10 56 C-10.33 55.34 -10.66 54.68 -11 54 C-13.5609294 55.79857668 -13.5609294 55.79857668 -16 58 C-16 58.99 -16 59.98 -16 61 C-10.00854475 61.37596582 -5.42374095 60.08402704 0.1875 58.0625 C1.76391823 57.51056153 3.34072823 56.95974048 4.91796875 56.41015625 C5.95087036 56.04096069 5.95087036 56.04096069 7.00463867 55.66430664 C8.98626672 55.00457216 10.96800982 54.47963725 13 54 C12.01 55.32 11.02 56.64 10 58 C17.96320991 56.06427901 23.30631273 54.0405309 28 47 C28.66 47 29.32 47 30 47 C30 47.66 30 48.32 30 49 C29.34 49 28.68 49 28 49 C27.79503906 49.5259375 27.59007812 50.051875 27.37890625 50.59375 C25.02825495 54.6957364 21.54319796 57.85513867 18.25585938 61.22265625 C17.72669922 61.77824219 17.19753906 62.33382812 16.65234375 62.90625 C16.16757568 63.40447266 15.68280762 63.90269531 15.18334961 64.41601562 C13.86254685 65.95084226 13.86254685 65.95084226 13.58422852 68.00585938 C13 70 13 70 9 73 C31.11 73 53.22 73 76 73 C76 73.66 76 74.32 76 75 C75.1474614 74.98366013 74.29492279 74.96732025 73.41654968 74.95048523 C65.3404738 74.80738973 57.26671332 74.72778406 49.18933392 74.71759319 C45.03725815 74.71016566 40.88829046 74.67911324 36.73706055 74.59204102 C32.72234598 74.50873505 28.71184391 74.49013843 24.69639015 74.51441383 C23.17297596 74.51263621 21.64940062 74.48842268 20.12674522 74.44031334 C11.79382481 74.08335922 11.79382481 74.08335922 4.3086586 77.2494545 C1.14661899 80.28157303 -1.38986368 83.69270582 -3.83351707 87.31510353 C-5.71248483 90.02913052 -7.82891961 92.52388139 -9.9375 95.0625 C-10.62714844 95.91972656 -11.31679687 96.77695313 -12.02734375 97.66015625 C-13.92534288 99.91144631 -15.81502816 102.02485844 -18 104 C-18.66 104 -19.32 104 -20 104 C-19.43454163 100.04179141 -18.19097652 97.3340947 -16 94 C-15.67 94.66 -15.34 95.32 -15 96 C-15.33 96.66 -15.66 97.32 -16 98 C-12.97909315 95.07063578 -10.07655806 92.0554558 -7.25 88.9375 C-6.65703125 88.28652344 -6.0640625 87.63554688 -5.453125 86.96484375 C-3.87377977 85.13875097 -3.87377977 85.13875097 -3.671875 83.06640625 C-3 81 -3 81 3 76 C-12.84 76 -28.68 76 -45 76 C-45.87198553 81.23191315 -46.19168985 85.87249524 -46.1875 91.125 C-46.1884668 92.3766394 -46.1884668 92.3766394 -46.18945312 93.65356445 C-46.13348049 100.24497855 -45.44036335 106.5569461 -44 113 C-48.29099573 108.70900427 -48.13240113 103.17299897 -48.1953125 97.41015625 C-48.18210875 94.96086095 -48.15839103 92.51160327 -48.125 90.0625 C-48.11597656 88.80630859 -48.10695312 87.55011719 -48.09765625 86.25585938 C-48.07419249 83.17037478 -48.04136201 80.08528795 -48 77 C-59.29425948 75.27839361 -59.29425948 75.27839361 -69.88037109 78.17919922 C-75.01578462 83.10363404 -77.92242314 89.69144682 -81 96 C-81.66 96 -82.32 96 -83 96 C-82 91 -82 91 -72 77 C-113.58 76.67 -155.16 76.34 -198 76 C-198 75.67 -198 75.34 -198 75 C-197.35046199 75.00682958 -196.70092398 75.01365915 -196.031703 75.02069569 C-180.18841441 75.18277582 -164.34659533 75.27236628 -148.50255108 75.28240681 C-140.84014239 75.28898999 -133.17927244 75.31962992 -125.51733398 75.40795898 C-118.83489232 75.48493393 -112.1540624 75.51569664 -105.4711917 75.49218339 C-101.93551498 75.48132539 -98.40323992 75.49277651 -94.86810875 75.55968666 C-79.51746324 76.60964235 -79.51746324 76.60964235 -65.87811279 71.14588928 C-62.96347794 68.06336726 -61.00634601 64.72155856 -59 61 C-57.91069291 59.64155961 -56.793186 58.30365653 -55.6171875 57.01953125 C-55.15739502 56.48102539 -54.69760254 55.94251953 -54.22387695 55.38769531 C-49.59579208 49.98309738 -44.92571211 44.62641333 -40.140625 39.359375 C-38.68337577 37.75320979 -37.23579222 36.13823378 -35.796875 34.515625 C-31.06574494 29.18896808 -26.16797515 24.10273634 -21.06640625 19.12890625 C-18.85574499 16.98022919 -18.85574499 16.98022919 -17 14 C-16.34 14 -15.68 14 -15 14 C-14.73445312 13.41734375 -14.46890625 12.8346875 -14.1953125 12.234375 C-12.96697004 9.93825772 -11.59685061 8.19643982 -9.875 6.25 C-9.33617187 5.63640625 -8.79734375 5.0228125 -8.2421875 4.390625 C-7.83226562 3.93171875 -7.42234375 3.4728125 -7 3 C-34.86842955 5.68963555 -61.95959218 8.49446323 -89 16 C-88 14 -88 14 -85.2109375 12.8515625 C-61.08703527 4.85135501 -35.01402714 2.78556522 -9.78540039 1.27026367 C-6.25569369 0.92778096 -3.6674316 -0.09651136 0 0 Z " fill="#444444" transform="translate(198,2)"/>
<path d="M0 0 C0 0.66 0 1.32 0 2 C-0.680625 2.37125 -1.36125 2.7425 -2.0625 3.125 C-5.35482397 5.22648338 -7.33818344 7.51507351 -9.8359375 10.48046875 C-13.03027521 14.19950814 -16.38760194 17.76363733 -19.73657227 21.34326172 C-22.63661879 24.46084728 -25.3840071 27.63479672 -28 31 C-27.030625 30.13375 -26.06125 29.2675 -25.0625 28.375 C-20.96449858 24.84803156 -16.54914461 21.90897683 -12 19 C-11.34 19.33 -10.68 19.66 -10 20 C-13.63 22.64 -17.26 25.28 -21 28 C-19.68 28.33 -18.36 28.66 -17 29 C-17.88042969 29.268125 -18.76085937 29.53625 -19.66796875 29.8125 C-28.65728794 32.82342586 -28.65728794 32.82342586 -34.2109375 40.0625 C-34.47132813 40.701875 -34.73171875 41.34125 -35 42 C-35.433125 42.99 -35.86625 43.98 -36.3125 45 C-36.539375 45.66 -36.76625 46.32 -37 47 C-37.33 47 -37.66 47 -38 47 C-38 45.02 -38 43.04 -38 41 C-43.40449628 46.89000658 -48.61169099 52.88943901 -53.6328125 59.109375 C-55.67833583 61.60720877 -57.77228587 64.05267631 -59.88964844 66.48950195 C-64.93543725 72.32403486 -69.59894287 78.37826726 -74.125 84.625 C-74.69379883 85.4075415 -75.26259766 86.19008301 -75.84863281 86.99633789 C-78.914844 91.23523075 -78.914844 91.23523075 -81 96 C-81.66 96 -82.32 96 -83 96 C-82 91 -82 91 -72 77 C-113.58 76.67 -155.16 76.34 -198 76 C-198 75.67 -198 75.34 -198 75 C-197.35046199 75.00682958 -196.70092398 75.01365915 -196.031703 75.02069569 C-180.18841441 75.18277582 -164.34659533 75.27236628 -148.50255108 75.28240681 C-140.84014239 75.28898999 -133.17927244 75.31962992 -125.51733398 75.40795898 C-118.83489232 75.48493393 -112.1540624 75.51569664 -105.4711917 75.49218339 C-101.93551498 75.48132539 -98.40323992 75.49277651 -94.86810875 75.55968666 C-79.51746324 76.60964235 -79.51746324 76.60964235 -65.87811279 71.14588928 C-62.96347794 68.06336726 -61.00634601 64.72155856 -59 61 C-57.91069291 59.64155961 -56.793186 58.30365653 -55.6171875 57.01953125 C-55.15739502 56.48102539 -54.69760254 55.94251953 -54.22387695 55.38769531 C-49.59579208 49.98309738 -44.92571211 44.62641333 -40.140625 39.359375 C-38.68337577 37.75320979 -37.23579222 36.13823378 -35.796875 34.515625 C-31.06574494 29.18896808 -26.16797515 24.10273634 -21.06640625 19.12890625 C-18.85574499 16.98022919 -18.85574499 16.98022919 -17 14 C-16.34 14 -15.68 14 -15 14 C-14.73445312 13.41734375 -14.46890625 12.8346875 -14.1953125 12.234375 C-12.96697004 9.93825772 -11.59685061 8.19643982 -9.875 6.25 C-9.33617187 5.63640625 -8.79734375 5.0228125 -8.2421875 4.390625 C-7.83226562 3.93171875 -7.42234375 3.4728125 -7 3 C-34.86842955 5.68963555 -61.95959218 8.49446323 -89 16 C-88 14 -88 14 -85.2109375 12.8515625 C-61.08703527 4.85135501 -35.01402714 2.78556522 -9.78540039 1.27026367 C-6.25569369 0.92778096 -3.6674316 -0.09651136 0 0 Z " fill="#313131" transform="translate(198,2)"/>
<path d="M0 0 C1.45289362 2.90578725 0.42460763 4.36934051 -0.58203125 7.41796875 C-0.93716797 8.50787109 -1.29230469 9.59777344 -1.65820312 10.72070312 C-2.03912109 11.86474609 -2.42003906 13.00878906 -2.8125 14.1875 C-3.54908914 16.4306903 -4.28479019 18.67417245 -5.01953125 20.91796875 C-5.35057861 21.91594482 -5.68162598 22.9139209 -6.02270508 23.94213867 C-7.0871243 27.27260352 -8.03945831 30.6381041 -9 34 C-15.27 34 -21.54 34 -28 34 C-23.50431739 27.25647608 -23.50431739 27.25647608 -21.08203125 24.51953125 C-20.55391846 23.91778076 -20.02580566 23.31603027 -19.48168945 22.69604492 C-18.93085693 22.0744751 -18.38002441 21.45290527 -17.8125 20.8125 C-12.99339579 15.32001355 -8.29175994 9.76472617 -3.70703125 4.07421875 C-2 2 -2 2 0 0 Z " fill="#F9F9F9" transform="translate(160,42)"/>
<path d="M0 0 C-0.74162182 4.29701005 -2.61606443 5.86746041 -5.90527344 8.53710938 C-9.4141139 10.98757232 -13.18463413 12.61634914 -17.125 14.25 C-17.91003906 14.58773438 -18.69507813 14.92546875 -19.50390625 15.2734375 C-21.6629751 16.19823259 -23.83055837 17.09990392 -26 18 C-26.89847656 18.39445312 -27.79695312 18.78890625 -28.72265625 19.1953125 C-31.28878611 20.10204106 -33.60332013 20.40826561 -36.3125 20.625 C-37.19550781 20.69976563 -38.07851562 20.77453125 -38.98828125 20.8515625 C-39.65214844 20.90054687 -40.31601563 20.94953125 -41 21 C-37.71329188 18.31087517 -34.35744465 15.81977975 -30.84375 13.44140625 C-28.8244059 11.93818139 -28.8244059 11.93818139 -26.69140625 9.54296875 C-23.75220309 6.76586968 -21.12581 5.37405307 -17.4375 3.75 C-16.32246094 3.24984375 -15.20742187 2.7496875 -14.05859375 2.234375 C-9.11655649 0.23988742 -5.35918495 -0.10306125 0 0 Z " fill="#BABABA" transform="translate(216,10)"/>
<path d="M0 0 C0 0.66 0 1.32 0 2 C-0.680625 2.37125 -1.36125 2.7425 -2.0625 3.125 C-5.35482397 5.22648338 -7.33818344 7.51507351 -9.8359375 10.48046875 C-13.03027521 14.19950814 -16.38760194 17.76363733 -19.73657227 21.34326172 C-22.63661879 24.46084728 -25.3840071 27.63479672 -28 31 C-27.030625 30.13375 -26.06125 29.2675 -25.0625 28.375 C-20.96449858 24.84803156 -16.54914461 21.90897683 -12 19 C-11.34 19.33 -10.68 19.66 -10 20 C-13.63 22.64 -17.26 25.28 -21 28 C-19.02 28.495 -19.02 28.495 -17 29 C-18.55780332 29.67756882 -20.12150096 30.34159457 -21.6875 31 C-22.99267578 31.556875 -22.99267578 31.556875 -24.32421875 32.125 C-27.06955818 33.02274603 -29.14038987 33.03864338 -32 33 C-34.28484306 34.39957197 -34.28484306 34.39957197 -36 36 C-34.61950251 32.88317581 -33.03207315 30.80407751 -30.59375 28.43359375 C-29.93246094 27.78326172 -29.27117187 27.13292969 -28.58984375 26.46289062 C-27.90019531 25.79451172 -27.21054688 25.12613281 -26.5 24.4375 C-25.13317272 23.10516275 -23.7684969 21.77061385 -22.40625 20.43359375 C-21.80103516 19.84634521 -21.19582031 19.25909668 -20.57226562 18.65405273 C-18.79696517 16.88091814 -18.79696517 16.88091814 -17 14 C-16.34 14 -15.68 14 -15 14 C-14.60167969 13.12601563 -14.60167969 13.12601563 -14.1953125 12.234375 C-12.96697004 9.93825772 -11.59685061 8.19643982 -9.875 6.25 C-9.33617187 5.63640625 -8.79734375 5.0228125 -8.2421875 4.390625 C-7.83226562 3.93171875 -7.42234375 3.4728125 -7 3 C-34.86842955 5.68963555 -61.95959218 8.49446323 -89 16 C-88 14 -88 14 -85.2109375 12.8515625 C-61.08703527 4.85135501 -35.01402714 2.78556522 -9.78540039 1.27026367 C-6.25569369 0.92778096 -3.6674316 -0.09651136 0 0 Z " fill="#555555" transform="translate(198,2)"/>
<path d="M0 0 C2.9375 2.0625 2.9375 2.0625 5 5 C5.06641554 8.85210127 4.87229157 10.99848005 2.3125 13.9375 C-0.7864448 15.3613395 -2.62182812 15.55153827 -6 15 C-8.9375 12.9375 -8.9375 12.9375 -11 10 C-11.06641554 6.14789873 -10.87229157 4.00151995 -8.3125 1.0625 C-5.2135552 -0.3613395 -3.37817188 -0.55153827 0 0 Z " fill="#ADADAD" transform="translate(73,47)"/>
<path d="M0 0 C2.4375 1.5625 2.4375 1.5625 4 4 C4.56288002 7.94016013 4.60396028 10.05782196 2.4375 13.4375 C-0.94217804 15.60396028 -3.05983987 15.56288002 -7 15 C-9.4375 13.4375 -9.4375 13.4375 -11 11 C-11.56288002 7.05983987 -11.60396028 4.94217804 -9.4375 1.5625 C-6.05782196 -0.60396028 -3.94016013 -0.56288002 0 0 Z " fill="#F9F9F9" transform="translate(46,47)"/>
<path d="M0 0 C0.33 0 0.66 0 1 0 C1.38998673 6.10979204 0.07448612 10.22107437 -2 16 C-3.32 20.29 -4.64 24.58 -6 29 C3.24 29 12.48 29 22 29 C22 29.33 22 29.66 22 30 C12.76 30.33 3.52 30.66 -6 31 C-6.87198553 36.23191315 -7.19168985 40.87249524 -7.1875 46.125 C-7.18814453 46.95942627 -7.18878906 47.79385254 -7.18945312 48.65356445 C-7.13348049 55.24497855 -6.44036335 61.5569461 -5 68 C-9.29099573 63.70900427 -9.13240113 58.17299897 -9.1953125 52.41015625 C-9.18210875 49.96086095 -9.15839103 47.51160327 -9.125 45.0625 C-9.11597656 43.80630859 -9.10695312 42.55011719 -9.09765625 41.25585938 C-9.07419337 38.17049041 -9.03832572 35.08522014 -9 32 C-15.6 31.67 -22.2 31.34 -29 31 C-28.67 30.34 -28.34 29.68 -28 29 C-21.4 29 -14.8 29 -8 29 C-7.608125 26.999375 -7.21625 24.99875 -6.8125 22.9375 C-5.14030297 15.06691879 -2.68449836 7.57601515 0 0 Z " fill="#505050" transform="translate(159,47)"/>
<path d="M0 0 C0.66 0.66 1.32 1.32 2 2 C1.66226563 2.51949219 1.32453125 3.03898437 0.9765625 3.57421875 C-1.39891701 7.28848007 -3.55762815 10.80400915 -5 15 C-5.33 15 -5.66 15 -6 15 C-6 13.02 -6 11.04 -6 9 C-12.24952816 15.8109515 -18.19143763 22.81128349 -24 30 C-25.68465026 32.06484622 -27.37369374 34.12604634 -29.0625 36.1875 C-29.81660156 37.10917969 -30.57070312 38.03085938 -31.34765625 38.98046875 C-31.89292969 39.64691406 -32.43820313 40.31335938 -33 41 C-33.66 40.67 -34.32 40.34 -35 40 C-33.31669114 35.9402551 -30.48903713 32.88665634 -27.625 29.625 C-26.53741843 28.37529754 -25.45018896 27.12528858 -24.36328125 25.875 C-23.80592285 25.235625 -23.24856445 24.59625 -22.67431641 23.9375 C-21.04906913 22.05678224 -19.44840699 20.15811854 -17.85546875 18.25 C-12.30610214 11.62399616 -6.73532168 5.47670096 0 0 Z " fill="#1C1C1C" transform="translate(166,34)"/>
<path d="M0 0 C-1.24546405 3.73639216 -2.63404953 4.18756513 -6 6 C-5.30132812 5.62746094 -4.60265625 5.25492188 -3.8828125 4.87109375 C-2.97273437 4.39800781 -2.06265625 3.92492188 -1.125 3.4375 C-0.22007812 2.96183594 0.68484375 2.48617187 1.6171875 1.99609375 C2.79667969 1.50302734 2.79667969 1.50302734 4 1 C4.66 1.33 5.32 1.66 6 2 C5.67 3.32 5.34 4.64 5 6 C5.53109375 5.77183594 6.0621875 5.54367188 6.609375 5.30859375 C7.31578125 5.02113281 8.0221875 4.73367187 8.75 4.4375 C9.44609375 4.14746094 10.1421875 3.85742188 10.859375 3.55859375 C13.30012784 2.92168197 14.6403655 3.19751169 17 4 C15.56445975 4.50559908 14.1264798 5.0042749 12.6875 5.5 C11.48673828 5.91765625 11.48673828 5.91765625 10.26171875 6.34375 C8 7 8 7 5 7 C4.731875 7.763125 4.46375 8.52625 4.1875 9.3125 C3.03868178 11.91245703 2.32721056 13.38885423 0 15 C-2.1875 14.6875 -2.1875 14.6875 -4 14 C-2.9024777 11.00675737 -2.32317108 10.15389099 0.625 8.75 C1.40875 8.5025 2.1925 8.255 3 8 C3 7.01 3 6.02 3 5 C2.24074219 5.28875 1.48148438 5.5775 0.69921875 5.875 C-0.29464844 6.24625 -1.28851563 6.6175 -2.3125 7 C-3.29863281 7.37125 -4.28476563 7.7425 -5.30078125 8.125 C-8 9 -8 9 -11 9 C-10.66032174 5.82966958 -10.00130809 5.00117393 -7.5625 2.8125 C-3.5862069 0 -3.5862069 0 0 0 Z " fill="#404040" transform="translate(252,54)"/>
<path d="M0 0 C8.05718867 -0.48102619 8.05718867 -0.48102619 12.0625 1.5625 C14 4 14 4 14.625 7.5 C14 11 14 11 12.0625 13.4375 C7.79922201 15.61264183 4.75340242 15.28378522 0 15 C0 10.05 0 5.1 0 0 Z M2 2 C2 5.63 2 9.26 2 13 C6.0100934 13.17864631 6.0100934 13.17864631 10 13 C12.37994368 11.05667668 12.37994368 11.05667668 12.25 7.5 C12.37994368 3.94332332 12.37994368 3.94332332 10 2 C7.31160615 1.73008094 4.70858064 1.91262643 2 2 Z " fill="#3C3C3C" transform="translate(91,47)"/>
<path d="M0 0 C0.66 0.33 1.32 0.66 2 1 C-1.63 3.64 -5.26 6.28 -9 9 C-7.68 9.33 -6.36 9.66 -5 10 C-6.55780332 10.67756882 -8.12150096 11.34159457 -9.6875 12 C-10.99267578 12.556875 -10.99267578 12.556875 -12.32421875 13.125 C-15.06955818 14.02274603 -17.14038987 14.03864338 -20 14 C-22.28484306 15.39957197 -22.28484306 15.39957197 -24 17 C-22.60249952 13.84164893 -20.94801766 11.67727175 -18.5 9.25 C-17.8915625 8.63640625 -17.283125 8.0228125 -16.65625 7.390625 C-15 6 -15 6 -13 6 C-13.33 6.639375 -13.66 7.27875 -14 7.9375 C-15.07271225 9.76794567 -15.07271225 9.76794567 -15 11 C-14.41992188 10.54109375 -13.83984375 10.0821875 -13.2421875 9.609375 C-8.92880026 6.22130185 -4.61806487 2.96029799 0 0 Z " fill="#2B2B2B" transform="translate(186,21)"/>
<path d="M0 0 C2.4375 1.5625 2.4375 1.5625 4 4 C4.56288002 7.94016013 4.60396028 10.05782196 2.4375 13.4375 C-0.94217804 15.60396028 -3.05983987 15.56288002 -7 15 C-9.4375 13.4375 -9.4375 13.4375 -11 11 C-11.56288002 7.05983987 -11.60396028 4.94217804 -9.4375 1.5625 C-6.05782196 -0.60396028 -3.94016013 -0.56288002 0 0 Z M-8.9375 3.1875 C-10.38718434 5.66049093 -10.42317323 7.17884512 -10 10 C-9.04451019 11.95625978 -9.04451019 11.95625978 -7 13 C-3.45800359 13.41673207 -3.45800359 13.41673207 0 13 C2.37994368 11.05667668 2.37994368 11.05667668 2.25 7.5 C2.37994368 3.94332332 2.37994368 3.94332332 0 2 C-4.68316534 1.52100162 -4.68316534 1.52100162 -8.9375 3.1875 Z " fill="#393939" transform="translate(46,47)"/>
<path d="M0 0 C0.66 0.33 1.32 0.66 2 1 C0.46889666 6.00223824 -2.53980171 9.28693416 -5.9375 13.125 C-6.74477539 14.05505859 -6.74477539 14.05505859 -7.56835938 15.00390625 C-12.87434748 21.08845488 -12.87434748 21.08845488 -15 23 C-15.66 23 -16.32 23 -17 23 C-16.43454163 19.04179141 -15.19097652 16.3340947 -13 13 C-12.67 13.66 -12.34 14.32 -12 15 C-12.33 15.66 -12.66 16.32 -13 17 C-9.97909315 14.07063578 -7.07655806 11.0554558 -4.25 7.9375 C-3.65703125 7.28652344 -3.0640625 6.63554688 -2.453125 5.96484375 C-0.95238367 3.93561555 -0.4174392 2.46618688 0 0 Z " fill="#353535" transform="translate(195,83)"/>
<path d="M0 0 C-1.4582881 3.53264443 -3.30823263 5.35982394 -6.3125 7.6875 C-7.07175781 8.28949219 -7.83101562 8.89148438 -8.61328125 9.51171875 C-11.13014642 11.08115514 -13.08062107 11.61247182 -16 12 C-14.53403275 8.0570536 -12.62691725 6.98165412 -8.875 5.25 C-7.96492187 4.82203125 -7.05484375 4.3940625 -6.1171875 3.953125 C-5.06917969 3.48132812 -5.06917969 3.48132812 -4 3 C-4.92039063 3.23009766 -4.92039063 3.23009766 -5.859375 3.46484375 C-6.91898438 3.72974609 -6.91898438 3.72974609 -8 4 C-9.11375 4.2784375 -9.11375 4.2784375 -10.25 4.5625 C-10.8275 4.706875 -11.405 4.85125 -12 5 C-8.36219404 0.99841344 -5.42711258 -0.30150625 0 0 Z " fill="#2A2A2A" transform="translate(236,56)"/>
<path d="M0 0 C3.3 0 6.6 0 10 0 C10 0.66 10 1.32 10 2 C7.36 2 4.72 2 2 2 C2 3.65 2 5.3 2 7 C4.31 7 6.62 7 9 7 C9 7.66 9 8.32 9 9 C6.69 9 4.38 9 2 9 C2 10.98 2 12.96 2 15 C1.34 15 0.68 15 0 15 C0 10.05 0 5.1 0 0 Z " fill="#444444" transform="translate(13,47)"/>
<path d="M0 0 C-1.62721365 3.71429203 -3.94670486 6.61641051 -6.5 9.75 C-7.69109375 11.22726563 -7.69109375 11.22726563 -8.90625 12.734375 C-9.5971875 13.48203125 -10.288125 14.2296875 -11 15 C-11.66 15 -12.32 15 -13 15 C-11.91284289 8.47705737 -7.37502746 0 0 0 Z " fill="#AFAFAF" transform="translate(195,85)"/>
<path d="M0 0 C0.66 0 1.32 0 2 0 C0.55888954 4.47802686 -1.73833297 7.21443427 -4.9375 10.625 C-6.25041016 12.03652344 -6.25041016 12.03652344 -7.58984375 13.4765625 C-9.37195093 15.34243161 -11.16066176 17.19101388 -13 19 C-13 14.10865856 -12.03271514 13.4987615 -8.75 10.0625 C-6.31884964 7.49231326 -3.98987447 4.9868696 -1.828125 2.18359375 C-1.22484375 1.46300781 -0.6215625 0.74242187 0 0 Z " fill="#232323" transform="translate(145,56)"/>
<path d="M0 0 C0 0.99 0 1.98 0 3 C-0.96099609 3.47179688 -0.96099609 3.47179688 -1.94140625 3.953125 C-5.98393411 5.95330272 -9.9934954 7.94984912 -13.875 10.25 C-16.38023987 11.65293433 -18.20388668 12.55262187 -21 13 C-18.99471627 8.2012862 -15.54716953 7.01530554 -11 5 C-10.01902344 4.55011719 -9.03804687 4.10023437 -8.02734375 3.63671875 C-5.3564458 2.41327517 -2.68047854 1.20227346 0 0 Z " fill="#A7A7A7" transform="translate(232,57)"/>
<path d="M0 0 C0.66 0.66 1.32 1.32 2 2 C1.66226563 2.51949219 1.32453125 3.03898437 0.9765625 3.57421875 C-1.39891701 7.28848007 -3.55762815 10.80400915 -5 15 C-5.33 15 -5.66 15 -6 15 C-5.67 12.69 -5.34 10.38 -5 8 C-5.99 7.67 -6.98 7.34 -8 7 C-5.36 4.69 -2.72 2.38 0 0 Z " fill="#101010" transform="translate(166,34)"/>
<path d="M0 0 C-1.24546405 3.73639216 -2.63404953 4.18756513 -6 6 C-5.34 6.66 -4.68 7.32 -4 8 C-6.31 8.33 -8.62 8.66 -11 9 C-10.66032174 5.82966958 -10.00130809 5.00117393 -7.5625 2.8125 C-3.5862069 0 -3.5862069 0 0 0 Z " fill="#464646" transform="translate(179,54)"/>
<path d="M0 0 C0 0.66 0 1.32 0 2 C-1.96147874 3.38938077 -3.96166576 4.7260411 -6 6 C-6.66 5.67 -7.32 5.34 -8 5 C-7.67 4.34 -7.34 3.68 -7 3 C-10.3 3 -13.6 3 -17 3 C-17 2.67 -17 2.34 -17 2 C-15.95199219 1.90912109 -15.95199219 1.90912109 -14.8828125 1.81640625 C-13.97273437 1.73261719 -13.06265625 1.64882813 -12.125 1.5625 C-11.22007812 1.48128906 -10.31515625 1.40007813 -9.3828125 1.31640625 C-5.98306119 0.86496386 -3.56964143 -0.09393793 0 0 Z " fill="#2A2A2A" transform="translate(198,2)"/>
<path d="M0 0 C0.33 0.66 0.66 1.32 1 2 C0.67 2.66 0.34 3.32 0 4 C0.99 3.67 1.98 3.34 3 3 C1.71480435 5.86697492 0.42870746 7.97607712 -2 10 C-2.66 10 -3.32 10 -4 10 C-3.43454163 6.04179141 -2.19097652 3.3340947 0 0 Z " fill="#494949" transform="translate(182,96)"/>
<path d="M0 0 C0.33 0 0.66 0 1 0 C1.56131481 6.45512034 -0.36536213 11.15439723 -3 17 C-3.33 17 -3.66 17 -4 17 C-3.45018084 10.95198929 -2.09570426 5.69398894 0 0 Z " fill="#303030" transform="translate(159,47)"/>
<path d="M0 0 C0.33 1.32 0.66 2.64 1 4 C-3.625 7 -3.625 7 -7 7 C-5.54744301 3.17053157 -3.57104439 1.87949705 0 0 Z " fill="#3B3B3B" transform="translate(227,61)"/>
<path d="M0 0 C-1 3 -1 3 -3.9375 4.6875 C-7 6 -7 6 -9 6 C-9.33 6.66 -9.66 7.32 -10 8 C-9.875 6.25 -9.875 6.25 -9 4 C-3.88888889 0 -3.88888889 0 0 0 Z " fill="#3F3F3F" transform="translate(252,54)"/>
<path d="M0 0 C0.66 0 1.32 0 2 0 C2 0.66 2 1.32 2 2 C1.34 2 0.68 2 0 2 C-0.20625 2.556875 -0.4125 3.11375 -0.625 3.6875 C-2.55000774 6.92501302 -5.03850902 8.68231141 -8 11 C-8.66 10.34 -9.32 9.68 -10 9 C-8.63875 8.1646875 -8.63875 8.1646875 -7.25 7.3125 C-4.14929372 5.10622823 -2.31084508 2.97108653 0 0 Z " fill="#353535" transform="translate(226,49)"/>
<path d="M0 0 C-0.33 1.32 -0.66 2.64 -1 4 C-2.32 4.33 -3.64 4.66 -5 5 C-5 3.68 -5 2.36 -5 1 C-2 0 -2 0 0 0 Z " fill="#777777" transform="translate(254,64)"/>
<path d="M0 0 C0.66 0.66 1.32 1.32 2 2 C1.7578125 4.1640625 1.7578125 4.1640625 1.125 6.625 C0.92132813 7.44226563 0.71765625 8.25953125 0.5078125 9.1015625 C0.34023437 9.72804688 0.17265625 10.35453125 0 11 C-0.66 10.67 -1.32 10.34 -2 10 C-1.34 6.7 -0.68 3.4 0 0 Z " fill="#4B4B4B" transform="translate(154,62)"/>
<path d="M0 0 C0.99 0.33 1.98 0.66 3 1 C1.35 2.98 -0.3 4.96 -2 7 C-2.66 6.67 -3.32 6.34 -4 6 C-2.84826645 3.53199953 -1.95216435 1.95216435 0 0 Z " fill="#262626" transform="translate(157,42)"/>
<path d="M0 0 C0.99 0.33 1.98 0.66 3 1 C1.68 3.31 0.36 5.62 -1 8 C-1.66 8 -2.32 8 -3 8 C-2.45276317 4.62537285 -1.9451 2.91765 0 0 Z " fill="#343434" transform="translate(118,90)"/>
<path d="M0 0 C0.66 0.33 1.32 0.66 2 1 C0.02 3.31 -1.96 5.62 -4 8 C-4.33 6.68 -4.66 5.36 -5 4 C-3.35 2.68 -1.7 1.36 0 0 Z " fill="#191919" transform="translate(201,78)"/>
</svg>
